<?xml version="1.0" encoding="utf-8"?>
<svg version="1.1" xmlns="http://www.w3.org/2000/svg" viewBox="0 0 32 32">
  <defs>
    <linearGradient id="bg" x1="0%" y1="0%" x2="100%" y2="100%">
      <stop offset="0%" stop-color="#10b981"/>
      <stop offset="100%" stop-color="#0d9488"/>
    </linearGradient>
  </defs>
  <!-- Rounded square background (emerald-teal) -->
  <rect width="32" height="32" rx="8" fill="url(#bg)"/>
  <!-- Tooth icon (white) -->
  <path fill="#ffffff" d="M16 6c-2.2 0-3.3 1-5 1-2.5 0-4 2-4 4.5 0 2 .8 3.5 1.5 5.5.4 1.2.6 2.5.8 4 .2 1.5.5 3 1.2 3 .8 0 .9-1.8 1.2-3.2.2-1.2.5-2.3 1.3-2.3s1.1 1.1 1.3 2.3c.3 1.4.4 3.2 1.2 3.2.7 0 1-1.5 1.2-3 .2-1.5.4-2.8.8-4 .7-2 1.5-3.5 1.5-5.5C20 8 18.5 6 16 6c0 0 0 0 0 0z"/>
  <!-- Small sparkle highlight -->
  <circle cx="13" cy="11" r="1.2" fill="#ffffff" opacity="0.6"/>
</svg>
